<?xml version="1.0" standalone="no"?><!DOCTYPE svg PUBLIC "-//W3C//DTD SVG 1.1//EN" "http://www.w3.org/Graphics/SVG/1.1/DTD/svg11.dtd"><svg t="1622266223165" class="icon" viewBox="0 0 1024 1024" version="1.1" xmlns="http://www.w3.org/2000/svg" p-id="1236" xmlns:xlink="http://www.w3.org/1999/xlink" width="16" height="16"><defs><style type="text/css"></style></defs><path d="M867.655536 195.961726L699.888303 28.194493C681.891818 10.198008 657.496583 0 632.101543 0H223.981254C170.991603 0.199961 128 43.191564 128 96.181215v831.837531c0 52.98965 42.991603 95.981254 95.981254 95.981254h575.887522c52.98965 0 95.981254-42.991603 95.981253-95.981254V263.948448c0-25.39504-10.198008-49.990236-28.194493-67.986722zM792.070299 256.149971H639.90002V103.979691l152.170279 152.17028zM223.981254 928.018746V96.181215h319.937512v207.959383c0 26.594806 21.395821 47.990627 47.990627 47.990626h207.959383v575.887522H223.981254z" fill="#594d9c" p-id="1237"></path></svg>